<svg width="220" height="55" viewBox="0 0 220 55" fill="none" xmlns="http://www.w3.org/2000/svg">
<g clip-path="url(#clip0_152_1292)">
<path d="M43.7307 10.0869H47.4725L52.4835 22.1847H52.6813L57.6923 10.0869H61.434V26.7826H58.4999V15.3125H58.3434L53.6785 26.7337H51.4862L46.8214 15.288H46.6648V26.7826H43.7307V10.0869Z" fill="white"/>
<path d="M66.4862 31.4782C66.0796 31.4782 65.7032 31.4456 65.3571 31.3804C65.0164 31.3206 64.7444 31.25 64.5412 31.1684L65.2335 28.8695C65.6675 28.9945 66.0549 29.0543 66.3955 29.0489C66.7362 29.0434 67.0357 28.9375 67.2939 28.7309C67.5576 28.5299 67.7802 28.1929 67.9615 27.7201L68.217 27.0434L63.6263 14.2608H66.7912L69.7087 23.7173H69.8406L72.7664 14.2608H75.9395L70.8708 28.2989C70.6346 28.9619 70.3214 29.5299 69.9313 30.0027C69.5412 30.4809 69.0631 30.8451 68.4972 31.0951C67.9368 31.3505 67.2664 31.4782 66.4862 31.4782Z" fill="white"/>
<path d="M78.1359 10.0869H81.8777L86.8887 22.1847H87.0865L92.0975 10.0869H95.8392V26.7826H92.9052V15.3125H92.7486L88.0837 26.7337H85.8914L81.2266 15.288H81.07V26.7826H78.1359V10.0869Z" fill="white"/>
<path d="M102.68 27.0353C101.878 27.0353 101.155 26.894 100.512 26.6114C99.8749 26.3233 99.3695 25.8994 98.9958 25.3396C98.6277 24.7798 98.4436 24.0896 98.4436 23.269C98.4436 22.5625 98.5755 21.9782 98.8392 21.5163C99.103 21.0543 99.4629 20.6847 99.9189 20.4076C100.375 20.1304 100.889 19.9212 101.46 19.7798C102.037 19.6331 102.633 19.5271 103.249 19.4619C103.99 19.3858 104.592 19.3179 105.054 19.2581C105.515 19.1929 105.85 19.0951 106.059 18.9646C106.273 18.8288 106.38 18.6195 106.38 18.3369V18.288C106.38 17.6739 106.196 17.1983 105.828 16.8614C105.46 16.5244 104.93 16.3559 104.238 16.3559C103.507 16.3559 102.927 16.5135 102.499 16.8288C102.076 17.144 101.79 17.5163 101.641 17.9456L98.8557 17.5543C99.0755 16.7934 99.4381 16.1576 99.9436 15.6467C100.449 15.1304 101.067 14.7445 101.798 14.4891C102.529 14.2282 103.336 14.0978 104.221 14.0978C104.831 14.0978 105.438 14.1684 106.043 14.3097C106.647 14.451 107.199 14.6847 107.699 15.0108C108.199 15.3315 108.6 15.769 108.902 16.3233C109.21 16.8777 109.364 17.5706 109.364 18.4021V26.7826H106.496V25.0625H106.397C106.216 25.4103 105.96 25.7364 105.63 26.0407C105.306 26.3396 104.897 26.5815 104.402 26.7663C103.913 26.9456 103.339 27.0353 102.68 27.0353ZM103.455 24.8668C104.054 24.8668 104.573 24.75 105.012 24.5163C105.452 24.2771 105.79 23.9619 106.026 23.5706C106.268 23.1793 106.389 22.7527 106.389 22.2907V20.8152C106.295 20.8913 106.136 20.9619 105.911 21.0271C105.691 21.0923 105.444 21.1494 105.169 21.1983C104.894 21.2472 104.622 21.2907 104.353 21.3288C104.084 21.3668 103.85 21.3994 103.652 21.4266C103.207 21.4864 102.809 21.5842 102.457 21.7201C102.106 21.8559 101.828 22.0462 101.625 22.2907C101.422 22.5298 101.32 22.8396 101.32 23.2201C101.32 23.7635 101.521 24.1739 101.922 24.451C102.323 24.7282 102.834 24.8668 103.455 24.8668Z" fill="white"/>
<path d="M112.364 26.7826V14.2608H115.257V16.3478H115.389C115.619 15.625 116.015 15.0679 116.576 14.6766C117.141 14.2798 117.787 14.0815 118.512 14.0815C118.677 14.0815 118.861 14.0896 119.065 14.1059C119.273 14.1168 119.446 14.1358 119.584 14.163V16.8777C119.457 16.8342 119.257 16.7962 118.982 16.7635C118.713 16.7255 118.452 16.7065 118.199 16.7065C117.655 16.7065 117.166 16.8233 116.732 17.057C116.304 17.2853 115.966 17.6032 115.718 18.0108C115.471 18.4184 115.347 18.8885 115.347 19.4212V26.7826H112.364Z" fill="white"/>
<path d="M124.286 22.8532L124.277 19.2907H124.755L129.305 14.2608H132.791L127.195 20.4239H126.577L124.286 22.8532ZM121.566 26.7826V10.0869H124.549V26.7826H121.566ZM129.511 26.7826L125.39 21.0842L127.401 19.0054L133.08 26.7826H129.511Z" fill="white"/>
<path d="M43.3737 37.6086H44.4121L47.9842 46.0923H48.0708L51.6429 37.6086H52.6813V47.3478H51.8352V39.487H51.7583L48.4362 47.3478H47.6188L44.2967 39.487H44.2198V47.3478H43.3737V37.6086Z" fill="#DDDDDD"/>
<path d="M57.1838 47.5142C56.7382 47.5142 56.3312 47.4286 55.9626 47.2574C55.594 47.0831 55.3007 46.8326 55.0828 46.5061C54.8648 46.1764 54.7559 45.7769 54.7559 45.3077C54.7559 44.9463 54.8248 44.6419 54.9626 44.3946C55.1004 44.1474 55.2959 43.9445 55.5491 43.786C55.8023 43.6274 56.102 43.5022 56.4482 43.4103C56.7943 43.3183 57.1757 43.247 57.5924 43.1963C58.0059 43.1456 58.3552 43.1012 58.6405 43.0631C58.9289 43.0251 59.1485 42.9648 59.2991 42.8824C59.4498 42.8 59.5251 42.6668 59.5251 42.483V42.3118C59.5251 41.814 59.3745 41.4225 59.0732 41.1372C58.7751 40.8487 58.3456 40.7044 57.7847 40.7044C57.2527 40.7044 56.8184 40.8201 56.4818 41.0516C56.1485 41.283 55.9145 41.5557 55.7799 41.8695L54.9674 41.5794C55.1341 41.18 55.3648 40.8614 55.6597 40.6236C55.9546 40.3826 56.2847 40.2099 56.6501 40.1052C57.0155 39.9975 57.3857 39.9436 57.7607 39.9436C58.0427 39.9436 58.336 39.98 58.6405 40.0529C58.9482 40.1259 59.2334 40.2527 59.4963 40.4334C59.7591 40.6109 59.9722 40.8598 60.1357 41.18C60.2991 41.497 60.3809 41.8996 60.3809 42.3879V47.3478H59.5251V46.1922H59.4722C59.3697 46.4078 59.2174 46.617 59.0155 46.8199C58.8136 47.0228 58.5604 47.1893 58.2559 47.3192C57.9514 47.4492 57.594 47.5142 57.1838 47.5142ZM57.2991 46.7391C57.7543 46.7391 58.1485 46.6392 58.4818 46.4395C58.8152 46.2398 59.0716 45.975 59.2511 45.6453C59.4338 45.3124 59.5251 44.9463 59.5251 44.5468V43.4911C59.461 43.5514 59.3536 43.6052 59.203 43.6528C59.0555 43.7004 58.8841 43.7432 58.6886 43.7812C58.4963 43.8161 58.3039 43.8462 58.1116 43.8716C57.9193 43.8969 57.7463 43.9191 57.5924 43.9381C57.1757 43.9889 56.82 44.0681 56.5251 44.1759C56.2302 44.2837 56.0043 44.4327 55.8472 44.6229C55.6902 44.81 55.6116 45.0509 55.6116 45.3457C55.6116 45.7896 55.7719 46.1336 56.0924 46.3777C56.4129 46.6186 56.8152 46.7391 57.2991 46.7391Z" fill="#DDDDDD"/>
<path d="M62.6573 50.0869V40.0434H63.489V41.4368H63.59C63.6926 41.218 63.8336 40.9945 64.0131 40.7663C64.1926 40.5348 64.4297 40.3398 64.7246 40.1813C65.0227 40.0228 65.3977 39.9436 65.8496 39.9436C66.4586 39.9436 66.9906 40.1021 67.4458 40.4191C67.9041 40.733 68.2599 41.1736 68.5131 41.7411C68.7695 42.3054 68.8977 42.9633 68.8977 43.7146C68.8977 44.4692 68.7695 45.1302 68.5131 45.6976C68.2599 46.2651 67.9041 46.7074 67.4458 47.0244C66.9906 47.3414 66.4618 47.4999 65.8592 47.4999C65.4137 47.4999 65.0403 47.4207 64.739 47.2622C64.441 47.1037 64.199 46.9087 64.0131 46.6773C63.8304 46.4427 63.6894 46.2144 63.59 45.9925H63.5131V50.0869H62.6573ZM63.5035 43.7004C63.5035 44.29 63.5916 44.8131 63.7679 45.2696C63.9474 45.723 64.2038 46.0797 64.5371 46.3396C64.8737 46.5964 65.2807 46.7248 65.7583 46.7248C66.2487 46.7248 66.6621 46.5917 66.9987 46.3254C67.3384 46.0559 67.5964 45.6929 67.7727 45.2364C67.9522 44.7798 68.0419 44.2678 68.0419 43.7004C68.0419 43.1392 67.9538 42.6336 67.7775 42.1834C67.6044 41.7332 67.348 41.3765 67.0083 41.1134C66.6685 40.8471 66.2519 40.7139 65.7583 40.7139C65.2775 40.7139 64.8689 40.8423 64.5323 41.0991C64.1958 41.3528 63.9394 41.7047 63.7631 42.1548C63.59 42.6018 63.5035 43.117 63.5035 43.7004Z" fill="#DDDDDD"/>
<path d="M70.7751 47.3478V40.0434H71.6309V43.3294H72.4338L75.1789 40.0434H76.2847L73.3232 43.5577L76.352 47.3478H75.2463L72.6982 44.1283H71.6309V47.3478H70.7751Z" fill="#DDDDDD"/>
<path d="M78.6116 46.1446L82.5107 40.0434H83.5347V47.3478H82.6789V41.2466L78.7943 47.3478H77.7559V40.0434H78.6116V46.1446Z" fill="#DDDDDD"/>
<path d="M85.7943 50.0869V40.0434H86.6261V41.4368H86.727C86.8296 41.218 86.9706 40.9945 87.1501 40.7663C87.3296 40.5348 87.5668 40.3398 87.8616 40.1813C88.1597 40.0228 88.5347 39.9436 88.9866 39.9436C89.5956 39.9436 90.1277 40.1021 90.5828 40.4191C91.0411 40.733 91.3969 41.1736 91.6501 41.7411C91.9065 42.3054 92.0347 42.9633 92.0347 43.7146C92.0347 44.4692 91.9065 45.1302 91.6501 45.6976C91.3969 46.2651 91.0411 46.7074 90.5828 47.0244C90.1277 47.3414 89.5988 47.4999 88.9963 47.4999C88.5507 47.4999 88.1773 47.4207 87.8761 47.2622C87.578 47.1037 87.336 46.9087 87.1501 46.6773C86.9674 46.4427 86.8264 46.2144 86.727 45.9925H86.6501V50.0869H85.7943ZM86.6405 43.7004C86.6405 44.29 86.7286 44.8131 86.9049 45.2696C87.0844 45.723 87.3408 46.0797 87.6741 46.3396C88.0107 46.5964 88.4177 46.7248 88.8953 46.7248C89.3857 46.7248 89.7991 46.5917 90.1357 46.3254C90.4754 46.0559 90.7334 45.6929 90.9097 45.2364C91.0892 44.7798 91.1789 44.2678 91.1789 43.7004C91.1789 43.1392 91.0908 42.6336 90.9145 42.1834C90.7414 41.7332 90.485 41.3765 90.1453 41.1134C89.8055 40.8471 89.3889 40.7139 88.8953 40.7139C88.4145 40.7139 88.0059 40.8423 87.6693 41.0991C87.3328 41.3528 87.0764 41.7047 86.9001 42.1548C86.727 42.6018 86.6405 43.117 86.6405 43.7004Z" fill="#DDDDDD"/>
<path d="M96.7823 47.4999C96.1445 47.4999 95.5804 47.3398 95.09 47.0196C94.6028 46.6994 94.2214 46.2572 93.9458 45.6929C93.6701 45.1254 93.5323 44.4707 93.5323 43.7289C93.5323 42.9807 93.6701 42.3229 93.9458 41.7554C94.2214 41.1847 94.6028 40.7409 95.09 40.4239C95.5804 40.1037 96.1445 39.9436 96.7823 39.9436C97.4201 39.9436 97.9826 40.1037 98.4698 40.4239C98.957 40.7441 99.3384 41.1879 99.614 41.7554C99.8929 42.3229 100.032 42.9807 100.032 43.7289C100.032 44.4707 99.8945 45.1254 99.6189 45.6929C99.3432 46.2572 98.9602 46.6994 98.4698 47.0196C97.9826 47.3398 97.4201 47.4999 96.7823 47.4999ZM96.7823 46.7248C97.2951 46.7248 97.7294 46.5885 98.0852 46.3158C98.441 46.0432 98.7102 45.6802 98.8929 45.2269C99.0788 44.7735 99.1717 44.2742 99.1717 43.7289C99.1717 43.1836 99.0788 42.6827 98.8929 42.2262C98.7102 41.7696 98.441 41.4035 98.0852 41.1277C97.7294 40.8518 97.2951 40.7139 96.7823 40.7139C96.2727 40.7139 95.8384 40.8518 95.4794 41.1277C95.1237 41.4035 94.8528 41.7696 94.6669 42.2262C94.4842 42.6827 94.3929 43.1836 94.3929 43.7289C94.3929 44.2742 94.4842 44.7735 94.6669 45.2269C94.8528 45.6802 95.1237 46.0432 95.4794 46.3158C95.8352 46.5885 96.2695 46.7248 96.7823 46.7248Z" fill="#DDDDDD"/>
<path d="M101.911 47.3478V40.0434H104.82C105.605 40.0434 106.223 40.2115 106.675 40.5475C107.13 40.8836 107.358 41.3369 107.358 41.9076C107.358 42.3419 107.231 42.689 106.978 42.949C106.725 43.209 106.385 43.3928 105.959 43.5006C106.244 43.5482 106.509 43.6512 106.752 43.8097C106.999 43.9682 107.199 44.1775 107.353 44.4374C107.507 44.6974 107.584 45.0081 107.584 45.3695C107.584 45.7499 107.488 46.0892 107.296 46.3872C107.103 46.6852 106.832 46.9198 106.483 47.091C106.134 47.2622 105.72 47.3478 105.243 47.3478H101.911ZM102.728 46.5631H105.243C105.695 46.5631 106.052 46.449 106.315 46.2207C106.578 45.9893 106.709 45.6818 106.709 45.2982C106.709 44.8892 106.584 44.5627 106.334 44.3186C106.087 44.0713 105.755 43.9476 105.339 43.9476H102.728V46.5631ZM102.728 43.1963H104.872C105.206 43.1963 105.494 43.1456 105.738 43.0441C105.981 42.9427 106.169 42.8 106.3 42.6161C106.435 42.4291 106.501 42.2103 106.497 41.9599C106.497 41.6016 106.35 41.3242 106.055 41.1277C105.76 40.9279 105.348 40.8281 104.82 40.8281H102.728V43.1963Z" fill="#DDDDDD"/>
<path d="M112.33 47.4999C111.693 47.4999 111.128 47.3398 110.638 47.0196C110.151 46.6994 109.769 46.2572 109.494 45.6929C109.218 45.1254 109.08 44.4707 109.08 43.7289C109.08 42.9807 109.218 42.3229 109.494 41.7554C109.769 41.1847 110.151 40.7409 110.638 40.4239C111.128 40.1037 111.693 39.9436 112.33 39.9436C112.968 39.9436 113.531 40.1037 114.018 40.4239C114.505 40.7441 114.886 41.1879 115.162 41.7554C115.441 42.3229 115.58 42.9807 115.58 43.7289C115.58 44.4707 115.443 45.1254 115.167 45.6929C114.891 46.2572 114.508 46.6994 114.018 47.0196C113.531 47.3398 112.968 47.4999 112.33 47.4999ZM112.33 46.7248C112.843 46.7248 113.278 46.5885 113.633 46.3158C113.989 46.0432 114.258 45.6802 114.441 45.2269C114.627 44.7735 114.72 44.2742 114.72 43.7289C114.72 43.1836 114.627 42.6827 114.441 42.2262C114.258 41.7696 113.989 41.4035 113.633 41.1277C113.278 40.8518 112.843 40.7139 112.33 40.7139C111.821 40.7139 111.386 40.8518 111.028 41.1277C110.672 41.4035 110.401 41.7696 110.215 42.2262C110.032 42.6827 109.941 43.1836 109.941 43.7289C109.941 44.2742 110.032 44.7735 110.215 45.2269C110.401 45.6802 110.672 46.0432 111.028 46.3158C111.383 46.5885 111.818 46.7248 112.33 46.7248Z" fill="#DDDDDD"/>
<path d="M122.906 40.0434V47.3478H122.046V40.0434H122.906ZM122.589 43.6528V44.4612C122.297 44.5658 122.02 44.6546 121.757 44.7275C121.494 44.7973 121.23 44.8512 120.964 44.8892C120.701 44.9273 120.421 44.9463 120.122 44.9463C119.292 44.9431 118.64 44.7323 118.166 44.3138C117.695 43.8953 117.459 43.2581 117.459 42.4021V40.0196H118.315V42.4021C118.315 42.8079 118.388 43.1392 118.536 43.396C118.683 43.6528 118.892 43.843 119.161 43.9667C119.43 44.0871 119.747 44.1474 120.113 44.1474C120.562 44.1474 120.985 44.103 121.382 44.0142C121.78 43.9254 122.182 43.805 122.589 43.6528Z" fill="#DDDDDD"/>
<path d="M130.166 43.3009V44.0998H125.824V43.3009H130.166ZM126.036 40.0434V47.3478H125.18V40.0434H126.036ZM130.796 40.0434V47.3478H129.94V40.0434H130.796Z" fill="#DDDDDD"/>
<path d="M135.136 47.5142C134.69 47.5142 134.283 47.4286 133.915 47.2574C133.546 47.0831 133.253 46.8326 133.035 46.5061C132.817 46.1764 132.708 45.7769 132.708 45.3077C132.708 44.9463 132.777 44.6419 132.915 44.3946C133.052 44.1474 133.248 43.9445 133.501 43.786C133.754 43.6274 134.054 43.5022 134.4 43.4103C134.746 43.3183 135.128 43.247 135.544 43.1963C135.958 43.1456 136.307 43.1012 136.592 43.0631C136.881 43.0251 137.1 42.9648 137.251 42.8824C137.402 42.8 137.477 42.6668 137.477 42.483V42.3118C137.477 41.814 137.326 41.4225 137.025 41.1372C136.727 40.8487 136.298 40.7044 135.737 40.7044C135.205 40.7044 134.77 40.8201 134.434 41.0516C134.1 41.283 133.866 41.5557 133.732 41.8695L132.919 41.5794C133.086 41.18 133.317 40.8614 133.612 40.6236C133.907 40.3826 134.237 40.2099 134.602 40.1052C134.967 39.9975 135.338 39.9436 135.713 39.9436C135.995 39.9436 136.288 39.98 136.592 40.0529C136.9 40.1259 137.185 40.2527 137.448 40.4334C137.711 40.6109 137.924 40.8598 138.088 41.18C138.251 41.497 138.333 41.8996 138.333 42.3879V47.3478H137.477V46.1922H137.424C137.322 46.4078 137.169 46.617 136.967 46.8199C136.765 47.0228 136.512 47.1893 136.208 47.3192C135.903 47.4492 135.546 47.5142 135.136 47.5142ZM135.251 46.7391C135.706 46.7391 136.1 46.6392 136.434 46.4395C136.767 46.2398 137.023 45.975 137.203 45.6453C137.386 45.3124 137.477 44.9463 137.477 44.5468V43.4911C137.413 43.5514 137.306 43.6052 137.155 43.6528C137.007 43.7004 136.836 43.7432 136.64 43.7812C136.448 43.8161 136.256 43.8462 136.064 43.8716C135.871 43.8969 135.698 43.9191 135.544 43.9381C135.128 43.9889 134.772 44.0681 134.477 44.1759C134.182 44.2837 133.956 44.4327 133.799 44.6229C133.642 44.81 133.564 45.0509 133.564 45.3457C133.564 45.7896 133.724 46.1336 134.044 46.3777C134.365 46.6186 134.767 46.7391 135.251 46.7391Z" fill="#DDDDDD"/>
<path d="M145.052 47.3478V40.8281H143.018C142.489 40.8312 142.087 40.9406 141.811 41.1562C141.539 41.3718 141.403 41.6936 141.403 42.1216C141.403 42.5495 141.532 42.8713 141.792 43.0869C142.052 43.2993 142.43 43.4055 142.927 43.4055H145.292V44.2044H142.927C142.417 44.2044 141.984 44.1236 141.628 43.9619C141.276 43.8002 141.007 43.564 140.821 43.2533C140.635 42.9427 140.542 42.5654 140.542 42.1216C140.542 41.6745 140.636 41.2973 140.826 40.9898C141.018 40.6791 141.298 40.4445 141.667 40.286C142.039 40.1243 142.489 40.0434 143.018 40.0434H145.869V47.3478H145.052ZM140.076 47.3478L142.201 43.7146H143.138L141.013 47.3478H140.076Z" fill="#DDDDDD"/>
<path d="M151.963 47.3478V40.0434H157.554V47.3478H156.693V40.8423H152.823V47.3478H151.963Z" fill="#DDDDDD"/>
<path d="M159.82 50.0869V40.0434H160.651V41.4368H160.752C160.855 41.218 160.996 40.9945 161.175 40.7663C161.355 40.5348 161.592 40.3398 161.887 40.1813C162.185 40.0228 162.56 39.9436 163.012 39.9436C163.621 39.9436 164.153 40.1021 164.608 40.4191C165.066 40.733 165.422 41.1736 165.675 41.7411C165.932 42.3054 166.06 42.9633 166.06 43.7146C166.06 44.4692 165.932 45.1302 165.675 45.6976C165.422 46.2651 165.066 46.7074 164.608 47.0244C164.153 47.3414 163.624 47.4999 163.021 47.4999C162.576 47.4999 162.203 47.4207 161.901 47.2622C161.603 47.1037 161.361 46.9087 161.175 46.6773C160.993 46.4427 160.852 46.2144 160.752 45.9925H160.675V50.0869H159.82ZM160.666 43.7004C160.666 44.29 160.754 44.8131 160.93 45.2696C161.11 45.723 161.366 46.0797 161.699 46.3396C162.036 46.5964 162.443 46.7248 162.921 46.7248C163.411 46.7248 163.824 46.5917 164.161 46.3254C164.501 46.0559 164.759 45.6929 164.935 45.2364C165.114 44.7798 165.204 44.2678 165.204 43.7004C165.204 43.1392 165.116 42.6336 164.94 42.1834C164.767 41.7332 164.51 41.3765 164.171 41.1134C163.831 40.8471 163.414 40.7139 162.921 40.7139C162.44 40.7139 162.031 40.8423 161.695 41.0991C161.358 41.3528 161.102 41.7047 160.925 42.1548C160.752 42.6018 160.666 43.117 160.666 43.7004Z" fill="#DDDDDD"/>
<path d="M170.808 47.4999C170.17 47.4999 169.606 47.3398 169.115 47.0196C168.628 46.6994 168.247 46.2572 167.971 45.6929C167.695 45.1254 167.558 44.4707 167.558 43.7289C167.558 42.9807 167.695 42.3229 167.971 41.7554C168.247 41.1847 168.628 40.7409 169.115 40.4239C169.606 40.1037 170.17 39.9436 170.808 39.9436C171.445 39.9436 172.008 40.1037 172.495 40.4239C172.982 40.7441 173.364 41.1879 173.639 41.7554C173.918 42.3229 174.058 42.9807 174.058 43.7289C174.058 44.4707 173.92 45.1254 173.644 45.6929C173.368 46.2572 172.985 46.6994 172.495 47.0196C172.008 47.3398 171.445 47.4999 170.808 47.4999ZM170.808 46.7248C171.32 46.7248 171.755 46.5885 172.11 46.3158C172.466 46.0432 172.735 45.6802 172.918 45.2269C173.104 44.7735 173.197 44.2742 173.197 43.7289C173.197 43.1836 173.104 42.6827 172.918 42.2262C172.735 41.7696 172.466 41.4035 172.11 41.1277C171.755 40.8518 171.32 40.7139 170.808 40.7139C170.298 40.7139 169.864 40.8518 169.505 41.1277C169.149 41.4035 168.878 41.7696 168.692 42.2262C168.509 42.6827 168.418 43.1836 168.418 43.7289C168.418 44.2742 168.509 44.7735 168.692 45.2269C168.878 45.6802 169.149 46.0432 169.505 46.3158C169.86 46.5885 170.295 46.7248 170.808 46.7248Z" fill="#DDDDDD"/>
<path d="M175.061 49.4259V46.5489H175.701C175.861 46.3713 176 46.1795 176.119 45.9735C176.237 45.7674 176.34 45.5328 176.427 45.2696C176.516 45.0033 176.592 44.6942 176.653 44.3423C176.713 43.9873 176.765 43.5735 176.806 43.1012L177.076 40.0434H181.446V46.5489H182.542V49.4259H181.686V47.3478H175.922V49.4259H175.061ZM176.686 46.5489H180.59V40.8423H177.874L177.653 43.1012C177.576 43.8684 177.467 44.5373 177.326 45.108C177.185 45.6786 176.971 46.1589 176.686 46.5489Z" fill="#DDDDDD"/>
<path d="M184.769 50.0869C184.599 50.0869 184.441 50.0711 184.293 50.0394C184.146 50.0076 184.029 49.9728 183.942 49.9347L184.173 49.1881C184.465 49.2769 184.724 49.3086 184.952 49.2832C185.179 49.261 185.381 49.1596 185.558 48.9789C185.734 48.8014 185.891 48.5287 186.029 48.161L186.298 47.4191L183.582 40.0434H184.509L186.702 46.2302H186.769L188.961 40.0434H189.889L186.764 48.5033C186.633 48.8552 186.471 49.1485 186.279 49.3831C186.086 49.6209 185.864 49.7968 185.61 49.911C185.36 50.0283 185.08 50.0869 184.769 50.0869Z" fill="#DDDDDD"/>
<path d="M191.564 47.3478V40.0434H192.419V43.3294H193.222L195.967 40.0434H197.073L194.112 43.5577L197.14 47.3478H196.035L193.487 44.1283H192.419V47.3478H191.564Z" fill="#DDDDDD"/>
<path d="M204.145 40.0434V46.5441H204.929V49.7112H204.073V47.3478H198.554V40.0434H199.415V46.5489H203.285V40.0434H204.145Z" fill="#DDDDDD"/>
<path d="M207.61 46.1446L211.509 40.0434H212.534V47.3478H211.678V41.2466L207.793 47.3478H206.755V40.0434H207.61V46.1446Z" fill="#DDDDDD"/>
<path d="M219.235 47.3478V40.8281H217.202C216.673 40.8312 216.271 40.9406 215.995 41.1562C215.723 41.3718 215.586 41.6936 215.586 42.1216C215.586 42.5495 215.716 42.8713 215.976 43.0869C216.235 43.2993 216.614 43.4055 217.11 43.4055H219.476V44.2044H217.11C216.601 44.2044 216.168 44.1236 215.812 43.9619C215.46 43.8002 215.191 43.564 215.005 43.2533C214.819 42.9427 214.726 42.5654 214.726 42.1216C214.726 41.6745 214.82 41.2973 215.009 40.9898C215.202 40.6791 215.482 40.4445 215.851 40.286C216.223 40.1243 216.673 40.0434 217.202 40.0434H220.053V47.3478H219.235ZM214.259 47.3478L216.384 43.7146H217.322L215.197 47.3478H214.259Z" fill="#DDDDDD"/>
<path d="M0 0H8.08128L13.6401 13.4072H13.9204L19.4792 0H27.5604V23.6707H21.2075V9.98609H21.0207L15.6954 23.4858H11.865L6.53977 9.89362H6.35292V23.6707H0V0Z" fill="#FF2149"/>
<path d="M0 55.4783H8.08128L13.6401 42.071H13.9204L19.4792 55.4783H27.5604V31.8075H21.2075V45.4922H21.0207L15.6954 31.9925H11.865L6.53977 45.5846H6.35292V31.8075H0V55.4783Z" fill="#FF2149"/>
</g>
<defs>
<clipPath id="clip0_152_1292">
<rect width="220" height="55" fill="white"/>
</clipPath>
</defs>
</svg>
