<svg id="Слой_1" data-name="Слой 1" xmlns="http://www.w3.org/2000/svg" viewBox="0 0 50.1672 60.5012"><defs><style>.cls-1,.cls-2{fill:#111;}.cls-1,.cls-3,.cls-4,.cls-5,.cls-6,.cls-7{fill-rule:evenodd;}.cls-3{fill:#d375ff;}.cls-4{fill:#1af070;}.cls-5{fill:#ffea2d;}.cls-6{fill:#98e1ff;}.cls-7{fill:#f83a3a;}</style></defs><path class="cls-1" d="M43.6915,60.2512l-1.78-4.51a2.9543,2.9543,0,0,0,1.48-2.7v-1.34a2.8778,2.8778,0,1,0-5.74,0v8.57a.2242.2242,0,0,0,.22.23h1.07a.2127.2127,0,0,0,.22-.23v-4.18h1.36l1.59,4.21a.2181.2181,0,0,0,.22.2h1.14C43.6215,60.5012,43.7415,60.4012,43.6915,60.2512Zm-1.81-7.21c0,.99-.54,1.61-1.41,1.61h-1.31v-3.05c0-.96.54-1.61,1.36-1.61a1.4347,1.4347,0,0,1,1.36,1.61Z"/><path class="cls-2" d="M49.9215,60.5012h-1.11a.255.255,0,0,1-.24-.18c-.55-1.7-1.3-3.34-1.96-5h-.56v4.93a.2523.2523,0,0,1-.24.25h-.98a.254.254,0,0,1-.25-.25v-11.4a.2457.2457,0,0,1,.25-.24h.98a.2434.2434,0,0,1,.24.24v4.36h.56c.8-2.02.82-2.06,1.77-4.45a.2526.2526,0,0,1,.23-.15h1.11a.245.245,0,0,1,.23.34c-.97,2.3-1.03,2.42-2.17,5.06.79,2.11.83,2.19,2.37,6.15A.253.253,0,0,1,49.9215,60.5012Z"/><path class="cls-3" d="M6.762,48.6074a2.2,2.2,0,0,0-2.0806,1.4119,2.235,2.235,0,0,0-2.0806-1.4119C.9412,48.6074,0,49.7963,0,51.654v8.6693a.1693.1693,0,0,0,.1734.1733H.8422a.1693.1693,0,0,0,.1733-.1733V51.654c0-1.3623.545-2.1053,1.5853-2.1053.9164,0,1.5852.743,1.5852,2.1053v8.6693a.1693.1693,0,0,0,.1734.1733h.6688a.1693.1693,0,0,0,.1733-.1733V51.654c0-1.3623.644-2.1053,1.5853-2.1053,1.04,0,1.5852.743,1.5852,2.1053v8.6693a.1693.1693,0,0,0,.1734.1733h.6688a.1693.1693,0,0,0,.1733-.1733V51.654C9.3628,49.7963,8.3968,48.6074,6.762,48.6074Zm6.762,11.8892h.6688a.1693.1693,0,0,0,.1734-.1733V56.6574a2.7132,2.7132,0,0,0,2.2292-2.8237V48.9542a.1693.1693,0,0,0-.1734-.1734h-.6688a.1694.1694,0,0,0-.1734.1734v4.88a1.7465,1.7465,0,1,1-3.4676,0V48.9542a.1694.1694,0,0,0-.1734-.1734H11.27a.1693.1693,0,0,0-.1734.1734v4.88a2.7132,2.7132,0,0,0,2.2292,2.8237v3.6659A.21.21,0,0,0,13.524,60.4966Z"/><path class="cls-2" d="M36.6215,60.1912l-2.52-10.87a.901.901,0,0,0-.89-.71.9121.9121,0,0,0-.9.71l-2.52,10.87a.2529.2529,0,0,0,.24.31h.96a.2376.2376,0,0,0,.24-.2l.6-2.53h2.85l.5,2.53a.2671.2671,0,0,0,.25.2h.95A.2481.2481,0,0,0,36.6215,60.1912Zm-4.55-3.66.9-4.28a.2514.2514,0,0,1,.49,0l.97,4.28Z"/><path class="cls-1" d="M28.7315,51.5812v8.67a.254.254,0,0,1-.25.25h-.99a.2611.2611,0,0,1-.25-.25v-8.67a1.485,1.485,0,1,0-2.97,0v8.67a.254.254,0,0,1-.25.25h-.99a.2523.2523,0,0,1-.24-.25v-8.67a1.49,1.49,0,1,0-2.98,0v8.67a.2523.2523,0,0,1-.24.25h-.99a.254.254,0,0,1-.25-.25v-8.67a2.9751,2.9751,0,0,1,5.2-1.97,2.9751,2.9751,0,0,1,5.2,1.97Z"/><path class="cls-3" d="M12.958,36.3975A1.5279,1.5279,0,1,1,15.0173,34.14,16.7425,16.7425,0,0,0,26.5791,38.63H42.4084a1.5383,1.5383,0,0,1,0,3.0766H26.5791A19.8873,19.8873,0,0,1,19.26,40.3424,20.7737,20.7737,0,0,1,12.958,36.3975Z"/><path class="cls-3" d="M43.5,14.2414a1.538,1.538,0,1,1-3.0021.67,15.4238,15.4238,0,0,0-5.2847-8.5845,14.5935,14.5935,0,0,0-9.3041-3.2751A16.2129,16.2129,0,0,0,14.4714,7.89,17.75,17.75,0,0,0,9.2363,19.6005a18.9928,18.9928,0,0,0,.5211,5.4832,17.9711,17.9711,0,0,0,2.01,4.987,1.54,1.54,0,1,1-2.6547,1.5631,21.4575,21.4575,0,0,1-2.357-5.8305A22.3,22.3,0,0,1,6.16,19.4517a20.7791,20.7791,0,0,1,6.1283-13.77A19.6407,19.6407,0,0,1,25.934,0,17.6747,17.6747,0,0,1,37.1733,3.97,18.5759,18.5759,0,0,1,43.5,14.2414Z"/><path class="cls-3" d="M12.1889,14.6632A1.5319,1.5319,0,1,1,15.0421,15.78a12.6707,12.6707,0,0,0-.5706,1.8856,10.3386,10.3386,0,0,0-.2482,1.96V20.32a13.4979,13.4979,0,0,0,3.4736,9.1553,12.3484,12.3484,0,0,0,8.56,3.9945h.5955a13.6876,13.6876,0,0,0,9.4528-3.8953,14.8939,14.8939,0,0,0,4.5652-9.577,1.5433,1.5433,0,0,1,3.0766.2481,17.96,17.96,0,0,1-5.508,11.5371,16.7528,16.7528,0,0,1-11.5866,4.7636c-.1737,0-.4218,0-.7444-.0248a15.4394,15.4394,0,0,1-10.6934-4.9869A16.4423,16.4423,0,0,1,11.122,20.32c0-.1984,0-.4714.0248-.8187a15.8324,15.8324,0,0,1,.3225-2.4563A15.5241,15.5241,0,0,1,12.1889,14.6632Z"/><path class="cls-4" d="M28.1174,5.3839a1.5379,1.5379,0,0,1-.5458,3.0269c-.2978-.05-.62-.0992-.918-.124-.273-.0248-.5707-.0248-.9428-.0248a10.8039,10.8039,0,0,0-4.2923.8932,11.6647,11.6647,0,0,0-3.7216,2.58,1.5264,1.5264,0,0,1-2.1834-2.1337,14.33,14.33,0,0,1,4.7141-3.25,13.7877,13.7877,0,0,1,5.508-1.1661c.3721,0,.7691.0248,1.2157.05A6.5291,6.5291,0,0,1,28.1174,5.3839Z"/><path class="cls-5" d="M33.2532,29.5745a1.528,1.528,0,1,1-1.6375-2.58,9.4957,9.4957,0,0,0,4.3419-7.4929,11.7508,11.7508,0,0,0-.9428-5.1607,10.5506,10.5506,0,0,0-3.1262-3.9945,1.5385,1.5385,0,0,1,1.8856-2.4315A13.4507,13.4507,0,0,1,37.8184,13.1a13.9853,13.9853,0,0,1,1.2157,6.55,12.6275,12.6275,0,0,1-1.6623,5.6817A12.48,12.48,0,0,1,33.2532,29.5745Z"/><path class="cls-6" d="M33.5509,16.0774a1.5379,1.5379,0,0,1-2.9028,1.0172,5.77,5.77,0,0,0-2.0345-2.7292,5.3682,5.3682,0,0,0-3.1758-.9924,6.1512,6.1512,0,0,0-4.2922,1.8112,6.7079,6.7079,0,0,0-1.9849,4.4411v.4466a8.4419,8.4419,0,0,0,2.1834,5.7562,7.7123,7.7123,0,0,0,5.3591,2.5059h.4962a1.5274,1.5274,0,0,1,.05,3.0517h-.1736a4.8918,4.8918,0,0,1-.5211-.0248,10.6979,10.6979,0,0,1-7.468-3.4983,11.5671,11.5671,0,0,1-3.0021-7.84,5.4609,5.4609,0,0,1,.0248-.5706,9.7933,9.7933,0,0,1,2.878-6.4757,9.1036,9.1036,0,0,1,6.4508-2.7043A8.394,8.394,0,0,1,30.4,11.86,8.94,8.94,0,0,1,33.5509,16.0774Z"/><path class="cls-7" d="M29.11,19.6253a1.5271,1.5271,0,1,1-3.0517-.124v-.05a1.0079,1.0079,0,0,0-.2481-.67.7515.7515,0,0,0-.5458-.2481h-.05a.9949.9949,0,0,0-.6947.2977,1.3224,1.3224,0,0,0-.3721.7939v.1737a3.3875,3.3875,0,0,0,.8932,2.3571,2.9912,2.9912,0,0,0,2.1337.9924h.1489a3.4345,3.4345,0,0,0,1.7367-.4714,3.99,3.99,0,0,0,1.3646-1.3646A1.54,1.54,0,1,1,33.08,22.8756a7.0551,7.0551,0,0,1-2.4562,2.4562,6.5974,6.5974,0,0,1-3.3.918h-.2978a6.0854,6.0854,0,0,1-4.2674-1.9848,6.511,6.511,0,0,1-1.712-4.4412v-.3225a4.2784,4.2784,0,0,1,1.2654-2.8533,4.0729,4.0729,0,0,1,2.878-1.2157h.1737a3.8378,3.8378,0,0,1,2.6548,1.24A3.9993,3.9993,0,0,1,29.085,19.402Z"/></svg>