<svg width="7" height="12" viewBox="0 0 7 12" fill="none" xmlns="http://www.w3.org/2000/svg">
<g clip-path="url(#clip0_152_1338)">
<path fill-rule="evenodd" clip-rule="evenodd" d="M0.232748 11.8246C0.490476 12.0586 0.907297 12.0586 1.16439 11.8246L6.61357 6.86613C6.73555 6.75683 6.83268 6.6255 6.89905 6.4797C6.96542 6.33391 6.99963 6.17664 6.99963 6.01798C6.99963 5.85932 6.96542 5.70236 6.89905 5.55656C6.83268 5.41076 6.73555 5.27943 6.61357 5.17013L1.12494 0.175015C1.00037 0.0633835 0.83541 0.000641175 0.663558 -0.000473214C0.491706 -0.0015876 0.325839 0.0591502 0.199656 0.169156C0.137147 0.22348 0.0871372 0.289227 0.0527127 0.362515C0.0182881 0.435803 0.000186437 0.514981 -0.000469775 0.595132C-0.00112599 0.675284 0.0156761 0.754555 0.0488966 0.828335C0.082117 0.902116 0.131043 0.968811 0.192655 1.02404L5.21611 5.59435C5.27715 5.649 5.32575 5.71478 5.35896 5.78771C5.39218 5.86064 5.40932 5.93891 5.40932 6.01828C5.40932 6.09764 5.39218 6.17621 5.35896 6.24914C5.32575 6.32206 5.27715 6.38784 5.21611 6.4425L0.232748 10.9768C0.171727 11.0314 0.123139 11.0973 0.0899316 11.1701C0.0567246 11.243 0.0395943 11.3214 0.0395943 11.4007C0.0395943 11.48 0.0567246 11.5584 0.0899316 11.6313C0.123139 11.7041 0.171727 11.77 0.232748 11.8246Z" fill="#111111"/>
</g>
<defs>
<clipPath id="clip0_152_1338">
<rect width="7" height="12" fill="white"/>
</clipPath>
</defs>
</svg>
