<svg width="7" height="12" viewBox="0 0 7 12" fill="none" xmlns="http://www.w3.org/2000/svg">
<path fill-rule="evenodd" clip-rule="evenodd" d="M6.76728 0.175375C6.50956 -0.0586243 6.09273 -0.0586243 5.83564 0.175375L0.38646 5.13387C0.264482 5.24317 0.167351 5.3745 0.100982 5.5203C0.0346127 5.66609 0.000403944 5.82336 0.00040393 5.98202C0.000403917 6.14067 0.0346127 6.29764 0.100982 6.44344C0.167351 6.58924 0.264482 6.72057 0.38646 6.82987L5.8751 11.825C5.99966 11.9366 6.16462 11.9994 6.33647 12.0005C6.50832 12.0016 6.67419 11.9408 6.80037 11.8308C6.86288 11.7765 6.91289 11.7108 6.94732 11.6375C6.98174 11.5642 6.99984 11.485 7.0005 11.4049C7.00116 11.3247 6.98435 11.2454 6.95113 11.1717C6.91791 11.0979 6.86899 11.0312 6.80738 10.976L1.78392 6.40565C1.72288 6.351 1.67428 6.28522 1.64107 6.21229C1.60785 6.13936 1.59071 6.06109 1.59071 5.98172C1.59071 5.90236 1.60785 5.82379 1.64107 5.75086C1.67428 5.67794 1.72288 5.61216 1.78392 5.5575L6.76728 1.02323C6.8283 0.968627 6.87689 0.902744 6.9101 0.829867C6.94331 0.75699 6.96044 0.678619 6.96044 0.599301C6.96044 0.519983 6.94331 0.441611 6.9101 0.368734C6.87689 0.295857 6.8283 0.229976 6.76728 0.175375Z" fill="#111111"/>
</svg>
