<svg width="30" height="30" viewBox="0 0 30 30" fill="none" xmlns="http://www.w3.org/2000/svg">
<path d="M22.2313 1.19995C25.1522 1.2188 27.9231 2.94667 29.1285 5.51272C30.6054 8.65808 30.0176 12.3036 28.7576 15.4313C26.4708 21.1051 21.2017 25.2884 15.8427 28.5544C15.4158 28.8145 14.7804 28.9163 14.2404 28.6172C10.4795 26.3301 6.8686 23.7088 4.16315 20.4466C3.46633 19.6071 2.83906 18.7162 2.33724 17.7674C2.33724 17.7674 2.04542 17.2296 1.82997 16.7885C0.597246 14.2752 -0.178662 11.5584 0.0354286 8.7473C0.215428 6.38985 1.25861 3.96706 3.38588 2.53701C5.34814 1.21629 8.02223 0.880766 10.3227 1.64606C13.0159 2.54078 15.0422 4.75497 16.1836 7.20541C16.5613 8.01971 15.9927 9.12555 14.9359 9.08659C13.9118 9.04889 13.5818 7.82745 12.9259 6.86612C11.8513 5.29281 10.2081 3.9369 8.20359 3.75846C6.19769 3.58127 4.20951 4.68837 3.35451 6.51049C1.89815 9.61061 3.08451 13.4446 4.81224 16.7131C6.20996 19.3282 8.58814 21.4343 11.0768 23.3444C12.2849 24.2718 13.5449 25.1401 14.8431 25.9645L14.9904 26.0574C15.0736 26.0047 15.1568 25.9531 15.2386 25.9004C18.4022 23.8847 21.4363 21.6278 23.7231 18.8368C24.2808 18.157 24.7867 17.4382 25.1904 16.6729C25.1904 16.6729 25.534 16.0408 25.7781 15.5256C27.0504 12.8376 27.8045 9.76266 26.8472 7.04959C26.194 5.19731 24.3258 3.71825 22.2204 3.71196C20.719 3.70694 19.2899 4.44081 18.2549 5.45492C18.2549 5.45492 17.6263 5.96385 16.9499 5.81683C16.009 5.61325 15.5686 4.40814 16.3472 3.65793C16.4018 3.60641 16.4563 3.55488 16.5122 3.50336C17.9795 2.15248 19.9458 1.25147 22.0417 1.20246C22.1045 1.20121 22.1672 1.19995 22.2313 1.19995Z" fill="#222222"/>
</svg>
