<svg width="30" height="30" viewBox="0 0 30 30" fill="none" xmlns="http://www.w3.org/2000/svg">
<g clip-path="url(#clip0_104_3)">
<path d="M21.7188 18.2031C22.6027 18.2193 23.4554 18.57 24.0957 19.1862C25.748 20.8189 27.3807 22.4712 29.0238 24.1143C30.308 25.4147 30.3461 27.6889 29.0146 29.0193C29.0123 29.0227 28.478 29.5143 27.9519 29.7427C26.6988 30.2862 25.14 29.9977 24.15 29.0447C22.4977 27.4131 20.8661 25.762 19.2242 24.12C17.9192 22.7977 17.9284 20.4197 19.3246 19.125C19.9465 18.5481 20.79 18.2181 21.6369 18.2031C21.6784 18.2031 21.6773 18.2031 21.7188 18.2031ZM21.6634 20.5143C21.12 20.5235 20.6204 20.9539 20.5361 21.4904C20.4807 21.8447 20.6007 22.2173 20.85 22.477C22.4769 24.1247 24.1154 25.7631 25.763 27.39C26.3654 27.9693 27.5942 27.6323 27.7154 26.715C27.7604 26.37 27.6415 26.0089 27.3969 25.7562C25.7688 24.1073 24.1315 22.4689 22.4827 20.8408C22.2646 20.632 21.968 20.5131 21.6634 20.5143ZM10.4584 -0.0149637C13.058 0.00926703 15.6323 1.03619 17.5211 2.81542C19.9315 5.08619 21.1511 8.55465 20.6907 11.8373C20.0988 16.0639 16.6592 19.7735 12.3588 20.5985C9.10612 21.2227 5.57882 20.19 3.17189 17.8685C0.708432 15.4904 -0.458106 11.85 0.166124 8.48196C0.773047 5.20273 3.06689 2.28234 6.11189 0.904652C7.47228 0.289652 8.96766 -0.0195791 10.4584 -0.0149637ZM10.4446 2.29619H10.3396C7.3892 2.32388 4.55882 4.06734 3.20997 6.66119C2.06305 8.86504 2.01574 11.6043 3.07959 13.845C4.59689 17.0423 8.34574 19.0154 11.9227 18.3289C15.2204 17.6966 17.963 14.7993 18.4084 11.4658C18.75 8.91696 17.79 6.22388 15.9 4.46427C14.4357 3.10042 12.4557 2.31465 10.4446 2.29619Z" fill="#222222"/>
</g>
<defs>
<clipPath id="clip0_104_3">
<rect width="30" height="30" fill="white"/>
</clipPath>
</defs>
</svg>
