<svg width="30" height="30" viewBox="0 0 30 30" fill="none" xmlns="http://www.w3.org/2000/svg">
<path d="M23.1539 14.866C23.5574 14.918 23.867 15.1868 24.1811 15.5237C26.3354 17.8303 27.5793 20.9306 27.6 24.1256C27.6137 26.2775 25.4102 27.8456 23.1458 28.6844C19.4874 30.039 15.4449 30.2456 11.5239 29.7644C8.94311 29.4483 6.30847 28.9036 4.17141 27.2744C3.19919 26.5337 2.39206 25.4456 2.40008 24.1268C2.42072 20.8718 3.7025 17.731 5.92554 15.4095C6.49076 14.8187 7.55356 14.7449 7.93649 15.5653C8.16923 16.0637 7.95827 16.606 7.53063 17.056C5.7765 18.9229 4.74007 21.4625 4.69307 24.0125C4.67472 24.9702 5.6607 25.6037 6.58478 26.0652C8.96833 27.256 11.7188 27.6056 14.4348 27.661C17.3973 27.721 20.431 27.4256 23.0988 26.2152C23.8567 25.8714 24.6363 25.471 25.1086 24.7683C25.3677 24.3841 25.3139 23.8371 25.2726 23.3364C25.0731 20.9064 23.9793 18.5653 22.2481 16.831C22.2481 16.831 21.9833 16.5195 21.9294 16.2172C21.8079 15.5353 22.4144 14.8349 23.1539 14.866ZM15.0516 0C17.9843 0.0276921 20.838 1.79999 22.1622 4.43997C23.2639 6.63688 23.288 9.34955 22.2264 11.5672C20.4917 15.1891 15.8461 17.1645 11.9251 15.5226C9.36616 14.4507 7.44465 11.9618 7.05942 9.19609C6.70745 6.66688 7.63152 3.99228 9.46935 2.22922C10.9277 0.82961 12.9019 0.0196152 14.9484 0C14.9828 0 15.0172 0 15.0516 0ZM14.9633 2.30537C12.3482 2.33075 9.91419 4.33035 9.38909 6.90803C9.00617 8.78763 9.63215 10.8484 10.9999 12.1926C12.5809 13.7468 15.0894 14.2614 17.1635 13.4076C19.5837 12.4107 21.1211 9.58493 20.6247 6.97841C20.1374 4.42266 17.7608 2.36537 15.1112 2.30652C15.0619 2.30537 15.0126 2.30537 14.9633 2.30537Z" fill="#222222"/>
</svg>
