<svg width="20" height="20" viewBox="0 0 20 20" fill="none" xmlns="http://www.w3.org/2000/svg">
<g clip-path="url(#clip0_152_1306)">
<path d="M16.5958 10.8569C16.2725 10.4485 16.365 10.2669 16.5958 9.90187C16.6 9.8977 19.2692 6.20937 19.5442 4.95854L19.5458 4.9577C19.6825 4.50187 19.5458 4.16687 18.885 4.16687H16.6983C16.1417 4.16687 15.885 4.45437 15.7475 4.77604C15.7475 4.77604 14.6342 7.44104 13.0592 9.16854C12.5508 9.6677 12.3158 9.8277 12.0383 9.8277C11.9017 9.8277 11.6892 9.6677 11.6892 9.21187V4.9577C11.6892 4.41104 11.5333 4.16687 11.0725 4.16687H7.63417C7.285 4.16687 7.0775 4.42187 7.0775 4.65937C7.0775 5.1777 7.865 5.29687 7.94667 6.7552V9.91937C7.94667 10.6127 7.82083 10.7402 7.54167 10.7402C6.79833 10.7402 4.99417 8.06437 3.925 5.00187C3.70917 4.4077 3.49833 4.1677 2.9375 4.1677H0.75C0.125833 4.1677 0 4.4552 0 4.77687C0 5.3452 0.743333 8.17104 3.45667 11.9044C5.265 14.4527 7.81167 15.8335 10.1283 15.8335C11.5208 15.8335 11.6908 15.5269 11.6908 14.9994C11.6908 12.5644 11.565 12.3344 12.2625 12.3344C12.5858 12.3344 13.1425 12.4944 14.4425 13.7235C15.9283 15.181 16.1725 15.8335 17.0042 15.8335H19.1908C19.8142 15.8335 20.13 15.5269 19.9483 14.9219C19.5325 13.6494 16.7225 11.0319 16.5958 10.8569Z" fill="white"/>
</g>
<defs>
<clipPath id="clip0_152_1306">
<rect width="20" height="20" fill="white"/>
</clipPath>
</defs>
</svg>
