<svg width="20" height="20" viewBox="0 0 20 20" fill="none" xmlns="http://www.w3.org/2000/svg">
<g clip-path="url(#clip0_152_1308)">
<path d="M19.5573 4.9408L19.5823 5.10414C19.3406 4.24664 18.6881 3.58497 17.8589 3.34414L17.8414 3.33997C16.2823 2.91664 10.0081 2.91664 10.0081 2.91664C10.0081 2.91664 3.74976 2.9083 2.17476 3.33997C1.32976 3.58497 0.676424 4.24664 0.438924 5.08664L0.434757 5.10414C-0.147743 8.14664 -0.15191 11.8025 0.46059 15.06L0.434757 14.895C0.676424 15.7525 1.32892 16.4141 2.15809 16.655L2.17559 16.6591C3.73309 17.0833 10.0089 17.0833 10.0089 17.0833C10.0089 17.0833 16.2664 17.0833 17.8423 16.6591C18.6881 16.4141 19.3414 15.7525 19.5789 14.9125L19.5831 14.895C19.8481 13.48 19.9998 11.8516 19.9998 10.1883C19.9998 10.1275 19.9998 10.0658 19.9989 10.0041C19.9998 9.94747 19.9998 9.87997 19.9998 9.81247C19.9998 8.1483 19.8481 6.51997 19.5573 4.9408ZM8.00642 13.0425V6.96497L13.2281 10.0083L8.00642 13.0425Z" fill="white"/>
</g>
<defs>
<clipPath id="clip0_152_1308">
<rect width="20" height="20" fill="white"/>
</clipPath>
</defs>
</svg>
